<?xml version="1.0" encoding="UTF-8" standalone="no"?>
<!-- Created with Inkscape (http://www.inkscape.org/) -->

<svg
   width="1280"
   height="720"
   viewBox="0 0 338.66666 190.5"
   version="1.1"
   id="svg5"
   inkscape:export-filename="bg-light.svg"
   inkscape:export-xdpi="96"
   inkscape:export-ydpi="96"
   xml:space="preserve"
   xmlns:inkscape="http://www.inkscape.org/namespaces/inkscape"
   xmlns:sodipodi="http://sodipodi.sourceforge.net/DTD/sodipodi-0.dtd"
   xmlns="http://www.w3.org/2000/svg"
   xmlns:svg="http://www.w3.org/2000/svg"><sodipodi:namedview
     id="namedview7"
     pagecolor="#ffffff"
     bordercolor="#000000"
     borderopacity="0.25"
     inkscape:showpageshadow="2"
     inkscape:pageopacity="0.0"
     inkscape:pagecheckerboard="0"
     inkscape:deskcolor="#d1d1d1"
     inkscape:document-units="mm"
     showgrid="false"
     inkscape:zoom="0.914906"
     inkscape:cx="396.76207"
     inkscape:cy="474.91217"
     inkscape:window-width="2400"
     inkscape:window-height="1321"
     inkscape:window-x="-9"
     inkscape:window-y="1330"
     inkscape:window-maximized="1"
     inkscape:current-layer="layer1" /><defs
     id="defs2" /><g
     inkscape:label="Layer 1"
     inkscape:groupmode="layer"
     id="layer1"><path
       style="fill:#f4c0bb;stroke-width:0.0628518"
       d="m 348.24984,60.798762 c -17.14704,-0.198419 -33.73382,-9.974267 -42.22498,-24.876497 -9.25353,-15.499979 -8.96499,-36.09349272 0.66513,-51.349447 8.84873,-14.554722 25.50724,-23.92751 42.53628,-23.742351 0.19494,33.2191149 0.0715,66.445097 0.0513,99.66677 0.22017,0.631505 -0.81548,0.159512 -1.02774,0.301525 z"
       id="path328" /><path
       style="fill:#f69b36;stroke-width:0.0603832"
       d="m 303.59534,243.70309 c -0.11318,-31.90182 -0.11045,-63.80401 -0.009,-95.70586 4.1981,-0.82868 8.49776,0.50983 12.60538,1.32526 18.45878,4.85346 33.10623,21.61237 35.10719,40.64522 2.07989,16.58219 -5.18035,33.9483 -18.61502,43.93595 -8.29064,6.29788 -18.65475,9.90199 -29.08852,9.79943 z"
       id="path332" /><path
       style="fill:#9c7f56;stroke-width:0.0293004"
       d="m 324.83731,88.974233 c 5.49573,-5.494308 10.9891,-10.990986 16.48871,-16.481402 0.0135,10.987588 0.006,21.975165 0.008,32.962719 -10.99248,0 -21.98496,0 -32.97744,0 5.4936,-5.493781 10.98722,-10.987554 16.48082,-16.481317 z"
       id="path330" /><path
       style="fill:#1a254e;stroke-width:0.0588248"
       d="m 240.97349,19.154032 c -0.11023,-31.077651 -0.10753,-62.157766 -0.009,-93.235603 2.37164,-0.759224 5.89923,0.122712 8.69768,0.485936 15.44357,2.788141 29.00321,13.97515 34.75729,28.575172 6.21102,15.151926 3.62169,33.498825 -6.64011,46.2727638 -8.69194,11.1964782 -22.63703,18.0369442 -36.80601,17.9017312 z"
       id="path326" /></g></svg>
